<?xml version="1.0" encoding="utf-8"?>
<!-- Generator: Adobe Illustrator 24.1.1, SVG Export Plug-In . SVG Version: 6.00 Build 0)  -->
<svg version="1.1" id="menu-icon.svg" xmlns="http://www.w3.org/2000/svg" xmlns:xlink="http://www.w3.org/1999/xlink" x="0px"
	 y="0px" viewBox="0 0 72.5 38" style="enable-background:new 0 0 72.5 38;" xml:space="preserve">
<style type="text/css">
	.st0{fill:#FFFFFF;}
</style>
<path id="menu-line" class="st0" d="M17.8,34.9L52.2,0.5c0.7-0.7,1.8-0.7,2.5,0l0,0c0.7,0.7,0.7,1.8,0,2.5L20.3,37.5
	c-0.7,0.7-1.8,0.7-2.5,0l0,0C17.1,36.8,17.1,35.6,17.8,34.9z"/>
<path id="menu-line_kopia_2" class="st0" d="M20.3,0.5l34.4,34.4c0.7,0.7,0.7,1.8,0,2.5l0,0c-0.7,0.7-1.8,0.7-2.5,0L17.8,3.1
	c-0.7-0.7-0.7-1.8,0-2.5l0,0C18.5-0.2,19.6-0.2,20.3,0.5z"/>
</svg>
